<?xml version="1.0" encoding="UTF-8" standalone="no"?><!DOCTYPE svg PUBLIC "-//W3C//DTD SVG 1.1//EN" "http://www.w3.org/Graphics/SVG/1.1/DTD/svg11.dtd"><!-- Generated by graphviz version 2.40.1 (20161225.0304)
 --><!-- Title: G Pages: 1 --><svg xmlns="http://www.w3.org/2000/svg" xmlns:xlink="http://www.w3.org/1999/xlink" width="270pt" height="1557pt" viewBox="0.00 0.00 269.78 1557.00">
<g id="graph0" class="graph" transform="scale(1 1) rotate(0) translate(4 1553)">
<title>G</title>
<polygon fill="#ffffff" stroke="transparent" points="-4,4 -4,-1553 265.7756,-1553 265.7756,4 -4,4"/>
<g id="clust1" class="cluster">
<title>cluster_nivel1</title>
<polygon fill="none" stroke="#000000" points="79.547,-790 79.547,-1541 253.7756,-1541 253.7756,-790 79.547,-790"/>
<text text-anchor="middle" x="166.6613" y="-1524.4" font-family="Times,serif" font-size="14.00" fill="#000000">Nivel 1</text>
</g>
<g id="clust2" class="cluster">
<title>cluster_admin</title>
<polygon fill="none" stroke="#000000" points="106.5779,-1431 106.5779,-1508 226.7446,-1508 226.7446,-1431 106.5779,-1431"/>
<text text-anchor="middle" x="166.6613" y="-1491.4" font-family="Times,serif" font-size="14.00" fill="#000000">Administraci贸n</text>
</g>
<g id="clust3" class="cluster">
<title>cluster_gerencia</title>
<polygon fill="none" stroke="#000000" points="94.8032,-1292 94.8032,-1423 238.5194,-1423 238.5194,-1292 94.8032,-1292"/>
<text text-anchor="middle" x="166.6613" y="-1406.4" font-family="Times,serif" font-size="14.00" fill="#000000">Gerencia</text>
</g>
<g id="clust4" class="cluster">
<title>cluster_atencion</title>
<polygon fill="none" stroke="#000000" points="87.547,-1153 87.547,-1284 245.7756,-1284 245.7756,-1153 87.547,-1153"/>
<text text-anchor="middle" x="166.6613" y="-1267.4" font-family="Times,serif" font-size="14.00" fill="#000000">Atenci贸n al Cliente</text>
</g>
<g id="clust5" class="cluster">
<title>cluster_rrhh</title>
<polygon fill="none" stroke="#000000" points="99.3362,-798 99.3362,-1145 233.9864,-1145 233.9864,-798 99.3362,-798"/>
<text text-anchor="middle" x="166.6613" y="-1128.4" font-family="Times,serif" font-size="14.00" fill="#000000">Recursos Humanos</text>
</g>
<g id="clust6" class="cluster">
<title>cluster_nivel2</title>
<polygon fill="none" stroke="#000000" points="113.6022,-8 113.6022,-782 219.7204,-782 219.7204,-8 113.6022,-8"/>
<text text-anchor="middle" x="166.6613" y="-765.4" font-family="Times,serif" font-size="14.00" fill="#000000">Nivel 2</text>
</g>
<g id="clust7" class="cluster">
<title>cluster_oficinaA</title>
<polygon fill="none" stroke="#000000" points="121.6022,-564 121.6022,-749 211.7204,-749 211.7204,-564 121.6022,-564"/>
<text text-anchor="middle" x="166.6613" y="-732.4" font-family="Times,serif" font-size="14.00" fill="#000000">Oficina A</text>
</g>
<g id="clust8" class="cluster">
<title>cluster_oficinaB</title>
<polygon fill="none" stroke="#000000" points="122.1333,-209 122.1333,-556 211.1892,-556 211.1892,-209 122.1333,-209"/>
<text text-anchor="middle" x="166.6613" y="-539.4" font-family="Times,serif" font-size="14.00" fill="#000000">Oficina B</text>
</g>
<g id="clust9" class="cluster">
<title>cluster_oficinaC</title>
<polygon fill="none" stroke="#000000" points="122.1333,-16 122.1333,-201 211.1892,-201 211.1892,-16 122.1333,-16"/>
<text text-anchor="middle" x="166.6613" y="-184.4" font-family="Times,serif" font-size="14.00" fill="#000000">Oficina C</text>
</g>
<!-- pc_admin -->
<g id="node1" class="node">
<title>pc_admin</title>
<ellipse fill="none" stroke="#000000" cx="166.6613" cy="-1457" rx="52.1668" ry="18"/>
<text text-anchor="middle" x="166.6613" y="-1452.8" font-family="Times,serif" font-size="14.00" fill="#000000">PC Admin</text>
</g>
<!-- pc_gerencia -->
<g id="node2" class="node">
<title>pc_gerencia</title>
<ellipse fill="none" stroke="#000000" cx="166.6613" cy="-1372" rx="60.209" ry="18"/>
<text text-anchor="middle" x="166.6613" y="-1367.8" font-family="Times,serif" font-size="14.00" fill="#000000">PC Gerencia</text>
</g>
<!-- pc_secretaria -->
<g id="node3" class="node">
<title>pc_secretaria</title>
<ellipse fill="none" stroke="#000000" cx="166.6613" cy="-1318" rx="63.7164" ry="18"/>
<text text-anchor="middle" x="166.6613" y="-1313.8" font-family="Times,serif" font-size="14.00" fill="#000000">PC Secretaria</text>
</g>
<!-- pc_atencion1 -->
<g id="node4" class="node">
<title>pc_atencion1</title>
<ellipse fill="none" stroke="#000000" cx="166.6613" cy="-1233" rx="71.2288" ry="18"/>
<text text-anchor="middle" x="166.6613" y="-1228.8" font-family="Times,serif" font-size="14.00" fill="#000000">PC Atenci贸n 1</text>
</g>
<!-- pc_atencion2 -->
<g id="node5" class="node">
<title>pc_atencion2</title>
<ellipse fill="none" stroke="#000000" cx="166.6613" cy="-1179" rx="71.2288" ry="18"/>
<text text-anchor="middle" x="166.6613" y="-1174.8" font-family="Times,serif" font-size="14.00" fill="#000000">PC Atenci贸n 2</text>
</g>
<!-- pc_rrhh1 -->
<g id="node6" class="node">
<title>pc_rrhh1</title>
<ellipse fill="none" stroke="#000000" cx="166.6613" cy="-1094" rx="59.1507" ry="18"/>
<text text-anchor="middle" x="166.6613" y="-1089.8" font-family="Times,serif" font-size="14.00" fill="#000000">PC RRHH 1</text>
</g>
<!-- pc_rrhh2 -->
<g id="node7" class="node">
<title>pc_rrhh2</title>
<ellipse fill="none" stroke="#000000" cx="166.6613" cy="-1040" rx="59.1507" ry="18"/>
<text text-anchor="middle" x="166.6613" y="-1035.8" font-family="Times,serif" font-size="14.00" fill="#000000">PC RRHH 2</text>
</g>
<!-- pc_rrhh3 -->
<g id="node8" class="node">
<title>pc_rrhh3</title>
<ellipse fill="none" stroke="#000000" cx="166.6613" cy="-986" rx="59.1507" ry="18"/>
<text text-anchor="middle" x="166.6613" y="-981.8" font-family="Times,serif" font-size="14.00" fill="#000000">PC RRHH 3</text>
</g>
<!-- pc_rrhh4 -->
<g id="node9" class="node">
<title>pc_rrhh4</title>
<ellipse fill="none" stroke="#000000" cx="166.6613" cy="-932" rx="59.1507" ry="18"/>
<text text-anchor="middle" x="166.6613" y="-927.8" font-family="Times,serif" font-size="14.00" fill="#000000">PC RRHH 4</text>
</g>
<!-- pc_rrhh5 -->
<g id="node10" class="node">
<title>pc_rrhh5</title>
<ellipse fill="none" stroke="#000000" cx="166.6613" cy="-878" rx="59.1507" ry="18"/>
<text text-anchor="middle" x="166.6613" y="-873.8" font-family="Times,serif" font-size="14.00" fill="#000000">PC RRHH 5</text>
</g>
<!-- pc_rrhh6 -->
<g id="node11" class="node">
<title>pc_rrhh6</title>
<ellipse fill="none" stroke="#000000" cx="166.6613" cy="-824" rx="59.1507" ry="18"/>
<text text-anchor="middle" x="166.6613" y="-819.8" font-family="Times,serif" font-size="14.00" fill="#000000">PC RRHH 6</text>
</g>
<!-- pc_a1 -->
<g id="node12" class="node">
<title>pc_a1</title>
<ellipse fill="none" stroke="#000000" cx="166.6613" cy="-698" rx="37.1182" ry="18"/>
<text text-anchor="middle" x="166.6613" y="-693.8" font-family="Times,serif" font-size="14.00" fill="#000000">PC A1</text>
</g>
<!-- pc_a2 -->
<g id="node13" class="node">
<title>pc_a2</title>
<ellipse fill="none" stroke="#000000" cx="166.6613" cy="-644" rx="37.1182" ry="18"/>
<text text-anchor="middle" x="166.6613" y="-639.8" font-family="Times,serif" font-size="14.00" fill="#000000">PC A2</text>
</g>
<!-- pc_a3 -->
<g id="node14" class="node">
<title>pc_a3</title>
<ellipse fill="none" stroke="#000000" cx="166.6613" cy="-590" rx="37.1182" ry="18"/>
<text text-anchor="middle" x="166.6613" y="-585.8" font-family="Times,serif" font-size="14.00" fill="#000000">PC A3</text>
</g>
<!-- pc_b1 -->
<g id="node15" class="node">
<title>pc_b1</title>
<ellipse fill="none" stroke="#000000" cx="166.6613" cy="-505" rx="36.5559" ry="18"/>
<text text-anchor="middle" x="166.6613" y="-500.8" font-family="Times,serif" font-size="14.00" fill="#000000">PC B1</text>
</g>
<!-- pc_b2 -->
<g id="node16" class="node">
<title>pc_b2</title>
<ellipse fill="none" stroke="#000000" cx="166.6613" cy="-451" rx="36.5559" ry="18"/>
<text text-anchor="middle" x="166.6613" y="-446.8" font-family="Times,serif" font-size="14.00" fill="#000000">PC B2</text>
</g>
<!-- pc_b3 -->
<g id="node17" class="node">
<title>pc_b3</title>
<ellipse fill="none" stroke="#000000" cx="166.6613" cy="-397" rx="36.5559" ry="18"/>
<text text-anchor="middle" x="166.6613" y="-392.8" font-family="Times,serif" font-size="14.00" fill="#000000">PC B3</text>
</g>
<!-- pc_b4 -->
<g id="node18" class="node">
<title>pc_b4</title>
<ellipse fill="none" stroke="#000000" cx="166.6613" cy="-343" rx="36.5559" ry="18"/>
<text text-anchor="middle" x="166.6613" y="-338.8" font-family="Times,serif" font-size="14.00" fill="#000000">PC B4</text>
</g>
<!-- pc_b5 -->
<g id="node19" class="node">
<title>pc_b5</title>
<ellipse fill="none" stroke="#000000" cx="166.6613" cy="-289" rx="36.5559" ry="18"/>
<text text-anchor="middle" x="166.6613" y="-284.8" font-family="Times,serif" font-size="14.00" fill="#000000">PC B5</text>
</g>
<!-- pc_b6 -->
<g id="node20" class="node">
<title>pc_b6</title>
<ellipse fill="none" stroke="#000000" cx="166.6613" cy="-235" rx="36.5559" ry="18"/>
<text text-anchor="middle" x="166.6613" y="-230.8" font-family="Times,serif" font-size="14.00" fill="#000000">PC B6</text>
</g>
<!-- pc_c1 -->
<g id="node21" class="node">
<title>pc_c1</title>
<ellipse fill="none" stroke="#000000" cx="166.6613" cy="-150" rx="36.5559" ry="18"/>
<text text-anchor="middle" x="166.6613" y="-145.8" font-family="Times,serif" font-size="14.00" fill="#000000">PC C1</text>
</g>
<!-- pc_c2 -->
<g id="node22" class="node">
<title>pc_c2</title>
<ellipse fill="none" stroke="#000000" cx="166.6613" cy="-96" rx="36.5559" ry="18"/>
<text text-anchor="middle" x="166.6613" y="-91.8" font-family="Times,serif" font-size="14.00" fill="#000000">PC C2</text>
</g>
<!-- pc_c3 -->
<g id="node23" class="node">
<title>pc_c3</title>
<ellipse fill="none" stroke="#000000" cx="166.6613" cy="-42" rx="36.5559" ry="18"/>
<text text-anchor="middle" x="166.6613" y="-37.8" font-family="Times,serif" font-size="14.00" fill="#000000">PC C3</text>
</g>
<!-- switch1 -->
<g id="node24" class="node">
<title>switch1</title>
<polygon fill="none" stroke="#000000" points="59.3222,-1112 .2248,-1112 .2248,-1076 59.3222,-1076 59.3222,-1112"/>
<text text-anchor="middle" x="29.7735" y="-1089.8" font-family="Times,serif" font-size="14.00" fill="#000000">switch1</text>
</g>
<!-- switch1&#45;&gt;pc_admin -->
<g id="edge2" class="edge">
<title>switch1-&gt;pc_admin</title>
<path fill="none" stroke="#000000" d="M30.0826,-1112.294C31.4976,-1174.7644 39.1791,-1378.4617 79.547,-1427 87.0623,-1436.0364 97.4399,-1442.3569 108.4177,-1446.7762"/>
<polygon fill="#000000" stroke="#000000" points="107.5677,-1450.1869 118.1625,-1450.1909 109.8826,-1443.5808 107.5677,-1450.1869"/>
</g>
<!-- switch1&#45;&gt;pc_gerencia -->
<g id="edge3" class="edge">
<title>switch1-&gt;pc_gerencia</title>
<path fill="none" stroke="#000000" d="M30.994,-1112.0423C34.8373,-1163.6409 48.3358,-1310.3341 79.547,-1345 85.7712,-1351.9132 93.7267,-1357.0753 102.2909,-1360.9261"/>
<polygon fill="#000000" stroke="#000000" points="101.1811,-1364.2497 111.7698,-1364.6106 103.7173,-1357.7253 101.1811,-1364.2497"/>
</g>
<!-- switch1&#45;&gt;pc_secretaria -->
<g id="edge4" class="edge">
<title>switch1-&gt;pc_secretaria</title>
<path fill="none" stroke="#000000" d="M32.2131,-1112.1671C38.3404,-1155.2721 55.6156,-1262.06 79.547,-1288 86.0675,-1295.0678 94.3296,-1300.4705 103.1557,-1304.6003"/>
<polygon fill="#000000" stroke="#000000" points="101.9293,-1307.8805 112.5083,-1308.4598 104.5996,-1301.4098 101.9293,-1307.8805"/>
</g>
<!-- switch1&#45;&gt;pc_atencion1 -->
<g id="edge5" class="edge">
<title>switch1-&gt;pc_atencion1</title>
<path fill="none" stroke="#000000" d="M33.0255,-1112.2667C38.3789,-1137.0175 51.3962,-1180.9804 79.547,-1206 85.1612,-1210.9898 91.686,-1215.0574 98.5912,-1218.3733"/>
<polygon fill="#000000" stroke="#000000" points="97.6204,-1221.7633 108.1933,-1222.4451 100.3532,-1215.3188 97.6204,-1221.7633"/>
</g>
<!-- switch1&#45;&gt;pc_atencion2 -->
<g id="edge6" class="edge">
<title>switch1-&gt;pc_atencion2</title>
<path fill="none" stroke="#000000" d="M42.2961,-1112.0435C51.4103,-1123.9919 64.7152,-1139.2094 79.547,-1149 87.7569,-1154.4194 97.0499,-1158.9664 106.4316,-1162.7473"/>
<polygon fill="#000000" stroke="#000000" points="105.2142,-1166.0287 115.8061,-1166.2768 107.6807,-1159.4776 105.2142,-1166.0287"/>
</g>
<!-- switch1&#45;&gt;pc_rrhh1 -->
<g id="edge7" class="edge">
<title>switch1-&gt;pc_rrhh1</title>
<path fill="none" stroke="#000000" d="M59.4761,-1094C70.6296,-1094 83.8297,-1094 97.0864,-1094"/>
<polygon fill="#000000" stroke="#000000" points="97.202,-1097.5001 107.202,-1094 97.2019,-1090.5001 97.202,-1097.5001"/>
</g>
<!-- switch1&#45;&gt;pc_rrhh2 -->
<g id="edge8" class="edge">
<title>switch1-&gt;pc_rrhh2</title>
<path fill="none" stroke="#000000" d="M59.5751,-1076.6063C66.0447,-1073.1795 72.9337,-1069.7866 79.547,-1067 90.0425,-1062.5775 101.5174,-1058.5087 112.5929,-1054.9439"/>
<polygon fill="#000000" stroke="#000000" points="113.6879,-1058.2687 122.1883,-1051.9448 111.5995,-1051.5875 113.6879,-1058.2687"/>
</g>
<!-- switch1&#45;&gt;pc_rrhh3 -->
<g id="edge9" class="edge">
<title>switch1-&gt;pc_rrhh3</title>
<path fill="none" stroke="#000000" d="M36.4348,-1075.8897C44.1048,-1057.4785 58.4265,-1029.3975 79.547,-1013 87.2514,-1007.0184 96.2922,-1002.3522 105.5801,-998.7146"/>
<polygon fill="#000000" stroke="#000000" points="107.0372,-1001.912 115.3029,-995.2842 104.7081,-995.3109 107.0372,-1001.912"/>
</g>
<!-- switch1&#45;&gt;pc_rrhh4 -->
<g id="edge10" class="edge">
<title>switch1-&gt;pc_rrhh4</title>
<path fill="none" stroke="#000000" d="M31.399,-1075.9469C34.957,-1047.1433 46.0205,-990.8052 79.547,-959 86.4528,-952.4488 94.9192,-947.4855 103.8324,-943.7256"/>
<polygon fill="#000000" stroke="#000000" points="105.0842,-946.9944 113.236,-940.2269 102.6432,-940.4337 105.0842,-946.9944"/>
</g>
<!-- switch1&#45;&gt;pc_rrhh5 -->
<g id="edge11" class="edge">
<title>switch1-&gt;pc_rrhh5</title>
<path fill="none" stroke="#000000" d="M32.2727,-1075.9374C38.4706,-1033.6282 55.7825,-929.8101 79.547,-905 86.1314,-898.1259 94.4274,-892.9914 103.268,-889.1585"/>
<polygon fill="#000000" stroke="#000000" points="104.5144,-892.4291 112.629,-885.617 102.0375,-885.8819 104.5144,-892.4291"/>
</g>
<!-- switch1&#45;&gt;pc_rrhh6 -->
<g id="edge12" class="edge">
<title>switch1-&gt;pc_rrhh6</title>
<path fill="none" stroke="#000000" d="M31.1352,-1075.8076C35.2773,-1025.2094 49.3317,-884.3489 79.547,-851 85.871,-844.0202 93.9595,-838.8263 102.6511,-834.9652"/>
<polygon fill="#000000" stroke="#000000" points="104.1814,-838.1269 112.2642,-831.2771 101.674,-831.5913 104.1814,-838.1269"/>
</g>
<!-- switch2 -->
<g id="node25" class="node">
<title>switch2</title>
<polygon fill="none" stroke="#000000" points="59.3222,-388 .2248,-388 .2248,-352 59.3222,-352 59.3222,-388"/>
<text text-anchor="middle" x="29.7735" y="-365.8" font-family="Times,serif" font-size="14.00" fill="#000000">switch2</text>
</g>
<!-- switch1&#45;&gt;switch2 -->
<g id="edge1" class="edge">
<title>switch1-&gt;switch2</title>
<path fill="none" stroke="#000000" d="M29.7735,-1075.7303C29.7735,-849.8545 29.7735,-623.9788 29.7735,-398.103"/>
<polygon fill="#000000" stroke="#000000" points="33.2736,-398.0293 29.7735,-388.0293 26.2736,-398.0293 33.2736,-398.0293"/>
</g>
<!-- switch2&#45;&gt;pc_a1 -->
<g id="edge13" class="edge">
<title>switch2-&gt;pc_a1</title>
<path fill="none" stroke="#000000" d="M30.3456,-388.1978C32.5447,-446.647 42.3022,-628.2824 79.547,-671 89.6924,-682.6362 104.7461,-689.3253 119.4978,-693.1478"/>
<polygon fill="#000000" stroke="#000000" points="119.0807,-696.6394 129.5982,-695.3617 120.5795,-689.8017 119.0807,-696.6394"/>
</g>
<!-- switch2&#45;&gt;pc_a2 -->
<g id="edge14" class="edge">
<title>switch2-&gt;pc_a2</title>
<path fill="none" stroke="#000000" d="M31.0636,-388.1216C35.0559,-439.2274 48.8349,-582.9941 79.547,-617 89.8943,-628.457 104.9961,-635.1034 119.73,-638.9417"/>
<polygon fill="#000000" stroke="#000000" points="119.2882,-642.4287 129.8086,-641.175 120.8026,-635.5944 119.2882,-642.4287"/>
</g>
<!-- switch2&#45;&gt;pc_a3 -->
<g id="edge15" class="edge">
<title>switch2-&gt;pc_a3</title>
<path fill="none" stroke="#000000" d="M32.3106,-388.109C38.5916,-430.5344 56.0719,-534.6835 79.547,-560 90.3423,-571.6421 105.8624,-578.7663 120.8205,-583.1258"/>
<polygon fill="#000000" stroke="#000000" points="119.9578,-586.5177 130.5137,-585.6111 121.6963,-579.737 119.9578,-586.5177"/>
</g>
<!-- switch2&#45;&gt;pc_b1 -->
<g id="edge16" class="edge">
<title>switch2-&gt;pc_b1</title>
<path fill="none" stroke="#000000" d="M33.3127,-388.0315C38.944,-411.9829 52.2233,-454.0476 79.547,-478 91.0592,-488.0918 106.3019,-494.412 120.8151,-498.37"/>
<polygon fill="#000000" stroke="#000000" points="120.1496,-501.8097 130.6913,-500.7501 121.7897,-495.0045 120.1496,-501.8097"/>
</g>
<!-- switch2&#45;&gt;pc_b2 -->
<g id="edge17" class="edge">
<title>switch2-&gt;pc_b2</title>
<path fill="none" stroke="#000000" d="M42.4663,-388.1105C51.5622,-399.863 64.7786,-414.6724 79.547,-424 92.4907,-432.1752 108.0837,-438.0265 122.4783,-442.1432"/>
<polygon fill="#000000" stroke="#000000" points="121.642,-445.5423 132.2051,-444.7233 123.4368,-438.7763 121.642,-445.5423"/>
</g>
<!-- switch2&#45;&gt;pc_b3 -->
<g id="edge18" class="edge">
<title>switch2-&gt;pc_b3</title>
<path fill="none" stroke="#000000" d="M59.4761,-375.8586C77.9916,-379.5106 102.147,-384.2751 122.8387,-388.3563"/>
<polygon fill="#000000" stroke="#000000" points="122.1899,-391.7957 132.6782,-390.2971 123.5446,-384.9281 122.1899,-391.7957"/>
</g>
<!-- switch2&#45;&gt;pc_b4 -->
<g id="edge19" class="edge">
<title>switch2-&gt;pc_b4</title>
<path fill="none" stroke="#000000" d="M59.4761,-364.1414C77.9916,-360.4894 102.147,-355.7249 122.8387,-351.6437"/>
<polygon fill="#000000" stroke="#000000" points="123.5446,-355.0719 132.6782,-349.7029 122.1899,-348.2043 123.5446,-355.0719"/>
</g>
<!-- switch2&#45;&gt;pc_b5 -->
<g id="edge20" class="edge">
<title>switch2-&gt;pc_b5</title>
<path fill="none" stroke="#000000" d="M42.4663,-351.8895C51.5622,-340.137 64.7786,-325.3276 79.547,-316 92.4907,-307.8248 108.0837,-301.9735 122.4783,-297.8568"/>
<polygon fill="#000000" stroke="#000000" points="123.4368,-301.2237 132.2051,-295.2767 121.642,-294.4577 123.4368,-301.2237"/>
</g>
<!-- switch2&#45;&gt;pc_b6 -->
<g id="edge21" class="edge">
<title>switch2-&gt;pc_b6</title>
<path fill="none" stroke="#000000" d="M33.3127,-351.9685C38.944,-328.0171 52.2233,-285.9524 79.547,-262 91.0592,-251.9082 106.3019,-245.588 120.8151,-241.63"/>
<polygon fill="#000000" stroke="#000000" points="121.7897,-244.9955 130.6913,-239.2499 120.1496,-238.1903 121.7897,-244.9955"/>
</g>
<!-- switch2&#45;&gt;pc_c1 -->
<g id="edge22" class="edge">
<title>switch2-&gt;pc_c1</title>
<path fill="none" stroke="#000000" d="M31.1295,-351.7758C34.3826,-319.2191 45.1285,-250.2464 79.547,-205 92.2472,-188.3045 111.5945,-175.3628 128.8329,-166.2396"/>
<polygon fill="#000000" stroke="#000000" points="130.7732,-169.1817 138.1372,-161.5644 127.6303,-162.9269 130.7732,-169.1817"/>
</g>
<!-- switch2&#45;&gt;pc_c2 -->
<g id="edge23" class="edge">
<title>switch2-&gt;pc_c2</title>
<path fill="none" stroke="#000000" d="M31.0636,-351.8784C35.0559,-300.7726 48.8349,-157.0059 79.547,-123 89.9805,-111.4475 105.2482,-104.7861 120.0982,-100.9629"/>
<polygon fill="#000000" stroke="#000000" points="121.2259,-104.2991 130.2478,-98.7442 119.731,-97.4606 121.2259,-104.2991"/>
</g>
<!-- switch2&#45;&gt;pc_c3 -->
<g id="edge24" class="edge">
<title>switch2-&gt;pc_c3</title>
<path fill="none" stroke="#000000" d="M30.3456,-351.8022C32.5447,-293.353 42.3022,-111.7176 79.547,-69 89.9607,-57.0561 105.5457,-50.3244 120.6672,-46.555"/>
<polygon fill="#000000" stroke="#000000" points="121.4186,-49.9736 130.4784,-44.4807 119.9706,-43.1249 121.4186,-49.9736"/>
</g>
</g>
</svg>